<?xml version="1.0" encoding="utf-8"?>
<!-- Generator: Adobe Illustrator 21.1.0, SVG Export Plug-In . SVG Version: 6.00 Build 0)  -->
<svg version="1.1" id="Layer_1" xmlns="http://www.w3.org/2000/svg" xmlns:xlink="http://www.w3.org/1999/xlink" x="0px" y="0px"
	 viewBox="0 0 114 86" style="enable-background:new 0 0 114 86;" xml:space="preserve">
<style type="text/css">
	.st0{fill:#990000;}
</style>
<g>
	<path class="st0" d="M58.1,30.2c2-6.3,5.1-11.1,9.2-14.3c4.1-3.3,9.1-4.9,15-4.9c6.9,0,12.5,2.1,16.8,6.4c4.2,4.2,6.3,9.9,6.3,16.8
		c0,6.1-1.5,11-4.4,14.8C98,52.7,92.4,56.3,84,59.8L83,60.3c-13.7,5.8-22,12.2-24.9,19.3c-3-7.2-11.2-13.6-24.8-19.3
		c-0.5-0.2-0.9-0.4-1.2-0.5c-8.4-3.5-14-7.1-16.9-10.8c-2.9-3.7-4.4-8.6-4.4-14.8c0-7,2.1-12.6,6.4-16.8S27,11,33.9,11
		c5.9,0,10.9,1.6,15,4.9C53,19.1,56.1,23.9,58.1,30.2z"/>
</g>
</svg>
