<?xml version="1.0" encoding="utf-8"?>
<!-- Generator: Adobe Illustrator 21.1.0, SVG Export Plug-In . SVG Version: 6.00 Build 0)  -->
<svg version="1.1" id="Layer_1" xmlns="http://www.w3.org/2000/svg" xmlns:xlink="http://www.w3.org/1999/xlink" x="0px" y="0px"
	 viewBox="0 0 811 373" style="enable-background:new 0 0 811 373;" xml:space="preserve">
<style type="text/css">
	.st0{fill:#990000;}
</style>
<g>
	<path class="st0" d="M235.1,32.2c1.5-16.6,11.5-21,23.1-21c13.8,0,19.2,5.2,19.2,18.9c0,4.1-0.9,8.3-2.4,8.3c-0.6,0-0.9-0.4-0.9-1
		c0-1.5,1.3-5.3,1.3-8.3c0-2.8-0.3-3.7-1.6-3.7c-1.2,0-1.9,1.5-2.2,4c-0.3,2.8-1.3,11.4-3.6,30.8c-1.6,15.8-3.8,36.6-3.8,44.4
		c0,2.7,0.6,3.6,2.5,3.6c0.7,0,1.3-0.3,1.9-0.3s0.9,0.4,0.9,0.9c0,0.6-0.4,1-1,1c-7.7-0.1-15.8-0.6-23.8-0.6
		c-9.3,0-24.4,0.6-27.5,0.6c-0.9,0-1-0.4-1-0.9c0-0.6,0.4-0.9,1.2-0.9c2.1,0,4.4,0.3,6.1,0.3c2.5,0,3.1-2.5,3.8-8
		c1.5-10.8,4.6-29.9,4.6-36.7c0-2.7-1.2-3.6-4.1-3.6c-3.4,0-5.2,1.2-5.3,4c-1.6,30.5,0,47.5-33.2,47.5c-20,0-27.4-5-27.4-18.9
		c0-3,0.4-7.4,2.2-7.4c0.6,0,1,0.4,1,1.2c0,1.2-1.9,4.3-1.9,7.5c0,3.1,1.3,4,5,4c11.5,0,18.8-19.5,22.2-50.8c2.5-22.8,9-24,9-27.8
		c0-0.7-0.4-1-1.2-1c-14.5,0-19.4,20.7-19.4,46.9c0.1,1.8,0.4,2.2,1.3,2.2c1.9,0,3-4.7,3-13.6c0-1.9-0.1-3.4-0.1-4
		c0-0.7,0.4-1.2,1-1.2s1,0.3,1,1.3c0,23.2-8.1,31.7-22.3,31.7c-13.3,0-15.8-11.1-15.8-22.9c0-25.2,13.2-42.2,42-42.2
		c3.3,0,10.1,0.6,16.7,0.6c7.3,0,15.7-0.6,22.9-0.6c1.8,0,3.3-0.1,4.7-0.1c0.7,0,1,0.4,0.9,0.9c0,0.6-0.3,1-1,1
		c-0.7,0-1.9-0.3-3-0.3c-2.1,0-3,1-3.8,6.1c-1.9,10.4-3,25.9-3,31.1c0,2.7,0.6,3.4,3.6,3.4c3.4,0,5.5-1,5.9-3.8
		C233.9,48.8,234.3,41.5,235.1,32.2z"/>
	<path class="st0" d="M316,111.2c-28.7,0-40-13-40-33.9c0-32.1,15.7-50.5,44.4-50.5c22.8,0,39.4,11.2,39.4,39.2
		C359.9,91.1,352,111.2,316,111.2z M326,35.9c0-5.8-1-7.5-3-7.5c-6.8,0-11.7,34.2-11.7,61.9c0,10.5,0.9,12.6,3.7,12.6
		C322.6,102.8,326,72.4,326,35.9z"/>
	<path class="st0" d="M413.6,46.4c-3.7,0-4.7,2.7-6.7,13.9c-2.4,14.2-5,31.2-6.5,47.7c-0.1,1.3-0.9,1.8-2.1,1.8
		c-3.8,0-18.4-6.4-28.4-6.4c-3,0-5.5,1.3-5.5,4.4c0,0.6,0.1,1.2,0.1,1.8c0,0.9-0.4,1.2-1,1.2c-0.9,0-1-0.6-1-1.2
		c0-24.7,7.4-48,7.4-64.1c0-2.1-0.7-2.5-1.8-2.5c-2.1,0-3.3,2.2-3.3,6.2c0,1.9,0.1,3.4,0.1,3.8c0,0.9-0.6,1.3-1,1.3
		c-0.6,0-1-0.3-1-1.5c0-18.2,8.1-24.7,22.5-24.7c11.1,0,17.5,4.3,17.5,15.7c0,9.3-1.5,15.2-1.5,18.8c0,1.5,0.9,1.9,1.8,1.9
		s1.6-0.4,1.8-2.1c2.7-23.5,8.4-34.9,25.8-34.9c17.8,0,22.1,8.1,22.1,23.8c0,10.2-6.8,32.4-6.8,42.6c0,2.2,0.6,3,1.8,3
		c2.1,0,3.3-2.7,3.3-7.7c0-1.9-0.1-3.4-0.1-4c0-0.7,0.4-1.2,1-1.2s1,0.3,1,1.3c0,18.9-8.1,25.8-22.3,25.8
		c-15.5,0-18.8-7.5-18.8-19.1c0-12,5.2-30.2,5.2-40.4C417,48.6,416.2,46.4,413.6,46.4z"/>
	<path class="st0" d="M494.4,111.9c-19.7,0-37.3-9.3-37.3-35.8c0-36.3,18.5-49.3,46.2-49.3c24.7,0,32.9,10.5,32.9,24
		c0,11.4-3.4,20-20.3,20c-14.1,0-20.3,1.5-20.3,7.7c0,4.4,3.6,7.1,11.2,7.1c12.4,0,25.8-4.1,25.8-15.5c0-0.4,0.3-0.7,0.7-0.7
		c0.4,0,0.7,0.3,0.7,0.7C534,100,522.5,111.9,494.4,111.9z M494.7,66.1c0,3.6,0,5.8,2.2,5.8c3.1,0,9.9-4.1,9.9-37.4
		c0-4.9-1.5-6.1-3-6.1C497.6,28.3,494.7,50.4,494.7,66.1z"/>
	<path class="st0" d="M575.9,98.6c0-7.3-5.9-12.1-13.9-15.1c-12.3-4.6-21.9-10.8-21.9-25.9c0-16,9.3-30,40.6-30
		c19.5,0,29.7,4.1,29.7,13.3c0,6.2-3.7,11.2-14.2,11.2c-9.6,0-16.7-3.1-16.7-10.2c0-4.9,2.5-11.1,2.5-11.4c0-0.9-0.4-1.5-1.8-1.5
		c-6.5,0-8.9,4.4-8.9,9.9c0,5.6,3.4,10.4,17.9,16.6c16,7,20.9,14.7,20.9,26.2c0,16.9-10.2,29.5-40.4,29.5
		c-26.8,0-34.5-6.2-34.5-14.5c0-6.8,4.3-11.4,16.1-11.4c10.1,0,16.4,4.7,16.4,11.1c0,4.4-3,7.4-3.4,11.1c0,1.5,1.2,2.2,3.6,2.2
		C572.8,109.7,575.9,104.2,575.9,98.6z"/>
	<path class="st0" d="M619.9,35.7c0-3.6-0.9-5.2-2.2-5.2c-1,0-1.9,0.3-2.8,0.3c-0.7,0-0.9-0.4-0.9-0.9c0-0.4,0.3-0.9,1-0.9
		c14.7,0,32.9-8.1,41.7-17.2c0.4-0.4,0.6-0.6,1-0.6c0.4,0,0.6,0.4,0.6,1c0,1.6-1.2,8.6-1.2,12.7c0,3.7,1,4.1,3.6,4.1
		c0.9,0,2.2-0.1,3.1-0.1c0.6,0,0.9,0.4,0.9,0.9c0,0.4-0.3,0.9-1,0.9c-1.3,0-2.5-0.1-3.8-0.1c-2.5,0-3.3,1.6-3.6,4.3
		c-2.2,21.9-7,53.6-7,58.8c0,2.1,0.6,3.3,2.2,3.3c3.3,0,5.5-8.4,5.5-18.1c0-3.4-0.7-4.4-0.7-5.5c0-0.9,0.4-1.6,1.3-1.6
		c0.7,0,1.3,0.4,1.3,2.7c0,26.8-8.3,36.7-25.2,36.7c-17,0-20.4-8.1-20.4-21.2C613.4,76.9,619.9,49.8,619.9,35.7z"/>
</g>
<g>
	<path class="st0" d="M191.9,142.8c-1.9,17-11,68.4-17.3,85.1c-0.6,1.5-1.8,2.1-2.5,2.1c-3.3,0-8.9-0.7-14.4-0.7
		c-5.6,0-11.8,0.7-15.7,0.7c-0.9,0-1.9-0.6-1.9-2.4c0-8.4,7.5-52.5,7.5-87.5c0-3.3-1.3-4-2.5-4c-6.4,0-9,11.4-9,32
		c0,8,0.1,17.5,0.1,28.3c0,25.9-9.9,36-28.3,36c-17.6,0-25.3-5.3-25.3-20c0-3,0.4-7.4,2.2-7.4c0.6,0,1,0.4,1,1.2
		c0,1.2-1.9,4.3-1.9,7.5c0,3.1,0.9,4,4.4,4c25.2,0,43.4-55.5,49.9-78.7c0.3-1,0.4-1.5,0.4-2.1c0-0.4-0.3-0.6-0.7-0.6
		c-16.4,0-30.9,31.4-30.9,49.1c0.1,1.8,0.4,2.2,1.3,2.2c2.2,0,3.4-7.5,3.4-11.4c0-3.4-0.6-5.3-0.6-6.2s0.4-1.5,1-1.5
		c0.7,0,1.2,0.4,1.2,1.8c0,23.1-8.1,31.5-20.4,31.5c-13.8,0-17.9-8.6-17.9-21.9c0-33,27.4-45.6,69.1-45.6c30,0,34.8,8.3,34.8,28.3
		c0,6.1-1.3,16.4-1.3,27.7c0,2.5,0.7,3.3,1.6,3.3c1.2,0,1.8-1,2.2-3.1c1.6-7.5,6.7-32,7.8-50.6c0.1-2.7,1.2-3.1,2.8-3.1
		c4.7,0,15.2,0.9,20,0.9c10.8,0,21.2-0.9,22.6-0.9c2.4,0,3.1,1.2,2.8,4c-1.6,13.6-8.6,70.7-6.8,86.7c0.1,0.6,0.3,1,0.3,1.6
		c0,0.6-0.7,0.9-1.6,0.9c-3.4,0-12.7-0.7-22.8-0.7c-7.5,0-25.2,0.7-26.9,0.7c-0.7,0-0.9-0.4-0.9-1c0.1-0.6,0.6-1,1.3-1
		c0.7,0,1.6,0.4,2.7,0.4c4.3,0,5.9-7.3,8.7-32.3c2.7-22.2,3-43.7,3-52.1c0-2.7-0.3-3.6-1.3-3.6C192.5,140.4,192.1,141.3,191.9,142.8
		z"/>
	<path class="st0" d="M280.9,231.4c-28.7,0-40-13-40-33.9c0-32.1,15.7-50.5,44.4-50.5c22.8,0,39.4,11.2,39.4,39.2
		C324.7,211.3,316.9,231.4,280.9,231.4z M290.8,156.1c0-5.8-1-7.5-3-7.5c-6.8,0-11.7,34.2-11.7,61.9c0,10.5,0.9,12.6,3.7,12.6
		C287.4,223,290.8,192.6,290.8,156.1z"/>
	<path class="st0" d="M334.6,155.9c0-3.6-0.9-5.2-2.2-5.2c-1,0-1.9,0.3-2.8,0.3c-0.7,0-0.9-0.4-0.9-0.9c0-0.4,0.3-0.9,1-0.9
		c14.7,0,32.9-8.1,41.7-17.2c0.4-0.4,0.6-0.6,1-0.6c0.4,0,0.6,0.4,0.6,1c0,1.6-1.2,8.6-1.2,12.7c0,3.7,1,4.1,3.6,4.1
		c0.9,0,2.2-0.1,3.1-0.1c0.6,0,0.9,0.4,0.9,0.9c0,0.4-0.3,0.9-1,0.9c-1.3,0-2.5-0.1-3.8-0.1c-2.5,0-3.3,1.6-3.6,4.3
		c-2.2,21.9-7,53.6-7,58.8c0,2.1,0.6,3.3,2.2,3.3c3.3,0,5.5-8.4,5.5-18.1c0-3.4-0.7-4.4-0.7-5.5c0-0.9,0.4-1.6,1.3-1.6
		c0.7,0,1.3,0.4,1.3,2.7c0,26.8-8.3,36.7-25.2,36.7c-17,0-20.4-8.1-20.4-21.2C328.1,197.1,334.6,170,334.6,155.9z"/>
	<path class="st0" d="M415.1,228.2c0,1.2-0.9,1.8-2.1,1.8c-4,0-18.8-6.4-29.2-6.4c-3,0-5.5,1.3-5.5,4.4c0,0.6,0.1,1.2,0.1,1.8
		c0,0.9-0.4,1.2-1,1.2c-0.9,0-1-0.3-1-0.7c0-21.9,9.9-64.2,9.9-85.5c0-2.8-0.7-3.6-1.9-3.6c-2.2,0-3.3,2.4-3.3,6.8
		c0,1.9,0.1,3.4,0.1,4c0,0.7-0.4,1.2-1,1.2s-1-0.3-1-1.3c0-18.2,8.1-24.9,22.3-24.9c16.1,0,19.5,7.4,19.4,20c0,11-7.4,29.2-7.4,36
		c0,1.5,0.9,1.9,1.8,1.9c0.9,0,1.6-0.4,1.8-2.1c2.5-23.5,10.2-34.9,27.5-34.9c17.8,0,22.1,8.1,22.1,23.8c0,10.2-6.8,32.4-6.8,42.6
		c0,2.2,0.6,3,1.8,3c2.1,0,3.3-2.7,3.3-7.7c0-1.9-0.1-3.4-0.1-4c0-0.7,0.4-1.2,1-1.2s1,0.3,1,1.3c0,18.9-8.1,25.8-22.3,25.8
		c-15.5,0-18.8-7.5-18.8-19.1c0-12,5.2-30.2,5.2-40.4c0-3.1-0.7-5.3-3.7-5.3c-3.6,0-6.1,3.3-8.1,18.1
		C416.9,201.2,415.1,216.3,415.1,228.2z"/>
	<path class="st0" d="M508.4,232.2c-19.7,0-37.3-9.3-37.3-35.8c0-36.3,18.5-49.3,46.2-49.3c24.7,0,32.9,10.5,32.9,24
		c0,11.4-3.4,20-20.3,20c-14.1,0-20.3,1.5-20.3,7.7c0,4.4,3.6,7.1,11.2,7.1c12.4,0,25.8-4.1,25.8-15.5c0-0.4,0.3-0.7,0.7-0.7
		c0.4,0,0.7,0.3,0.7,0.7C548,220.2,536.5,232.2,508.4,232.2z M508.7,186.3c0,3.6,0,5.8,2.2,5.8c3.1,0,9.9-4.1,9.9-37.4
		c0-4.9-1.5-6.1-3-6.1C511.6,148.5,508.7,170.6,508.7,186.3z"/>
	<path class="st0" d="M595.1,229.9c-4.9,0-22.8-6.4-35.4-6.4c-3,0-5.5,1.3-5.5,4.4c0,0.6,0.1,1.2,0.1,1.8c0,0.9-0.4,1.2-1,1.2
		c-0.9,0-1-0.6-1-1.2c0-20.9,7.7-48,7.7-63.9c0-2.2-0.9-2.7-1.8-2.7c-2.2,0-3.3,3.3-3.3,7.7c0,1.9,0.1,3.4,0.1,3.8
		c0,0.9-0.6,1.3-1,1.3c-0.6,0-1-0.3-1-1.5c0-19.2,8.1-26.2,22.5-26.2c10.7,0,16.9,4.3,16.9,15.7c0,9.9-2.4,22.8-2.4,27.2
		c0,1.8,0.4,2.7,1.5,2.7s1.9-0.7,2.4-6.1c2.1-27.7,8.7-40.1,20.6-40.1c7,0,12,4.6,12,19.4c0,20.4-3.4,37.9-14.2,37.9
		c-8.3,0-10.8-8-12.6-13.8c-0.7-2.5-1.2-3.4-2.5-3.4c-1,0-1.8,0.7-1.8,3c0,20.4,1.8,34.5,1.8,37.3
		C597.2,229.4,596.3,229.9,595.1,229.9z"/>
	<path class="st0" d="M631.7,178.1c1.6,0,4.4,0.4,7.1,0.4c10.4,0,17.9-4.6,18.4-8.7c0.1-1.5-0.9-2.1-1.9-2.1
		c-3.1,0-5.9,5.2-13.8,5.2c-8.7,0-13.5-5.5-13.5-15.5c0-13,7.8-22.5,20.3-22.5c11.8,0,17,8.9,17,19.2c0,18.4-13.5,27.5-33.7,27.5
		c-1.9,0-3.1-0.3-3.1-1.8C628.4,178.6,629.7,178.1,631.7,178.1z"/>
	<path class="st0" d="M702,218.8c0-7.3-5.9-12.1-13.9-15.1c-12.3-4.6-21.9-10.8-21.9-25.9c0-16,9.3-30,40.6-30
		c19.5,0,29.7,4.1,29.7,13.3c0,6.2-3.7,11.2-14.2,11.2c-9.6,0-16.7-3.1-16.7-10.2c0-4.9,2.5-11.1,2.5-11.4c0-0.9-0.4-1.5-1.8-1.5
		c-6.5,0-8.9,4.4-8.9,9.9c0,5.6,3.4,10.4,17.9,16.6c16,7,20.9,14.7,20.9,26.2c0,16.9-10.2,29.5-40.4,29.5
		c-26.8,0-34.5-6.2-34.5-14.5c0-6.8,4.3-11.4,16.1-11.4c10.1,0,16.4,4.7,16.4,11.1c0,4.4-3,7.4-3.4,11.1c0,1.5,1.2,2.2,3.6,2.2
		C698.8,229.9,702,224.5,702,218.8z"/>
</g>
<g>
	<path class="st0" d="M119.9,346.6c-19.8,0-22.1-19.7-22.1-24.6c0-0.9-0.3-1.3-0.9-1.3s-1,0.4-1.2,1.2c-3.6,21-16.7,25.3-32.6,25.3
		c-17,0-24.3-7.1-24.3-14.8c0-9.8,7.5-14.9,20.1-14.9c2.5,0,3.4-1.6,3.7-4.6c3.8-41,14.2-57,43.5-57c0.7,0,1,0.3,1,0.7
		c0,0.6-0.4,0.9-0.9,0.9c-0.6,0-1.2-0.1-1.9-0.1c-1.5,0-1.9,3.1-2.4,8c-2.2,21.3-5,44.7-5,51.2c0,2.7,1.3,4.1,3.8,4.1
		c8.4,0,13.6-29.5,13.6-51.2c0-13.3-2.1-16.6-17.6-16.6c-26.3,0-40,29-40,45.6c0,4.1,0.4,4.9,1.6,4.9c1.9,0,3.1-4.7,3.6-13.6
		c0-1.9-0.1-3.4,0-4c0-0.7,0.4-1.2,1-1.2c0.6,0,1,0.3,1,1.3c-0.9,23.2-9.5,31.7-23.7,31.7c-11.5,0-16.1-7.5-16.1-18.5
		c0-31.5,26-47.7,71-47.7c37.4,0,51.2,12.6,51.2,47.7C146.7,326.3,139.7,346.6,119.9,346.6z M59.6,319.2c-5,0-8.9,6.7-8.9,16.1
		c0,2.5,1,4.1,2.8,4.1c5,0,7.4-11.4,7.4-18.2C61,320,60.7,319.2,59.6,319.2z"/>
	<path class="st0" d="M186.9,263.6c19.5,0,26.9,8.4,45.3,8.4c3,0,5.5-1.3,5.5-4.4c0-0.6-0.1-1.2-0.1-1.8c0-0.9,0.4-1.2,1-1.2
		c0.9,0,1,0.6,1,1.2c0,13.6-6.7,48.2-6.7,64.4c0,2.1,0.6,2.8,1.6,2.8c2.1,0,3.4-2.4,3.4-7.7c0-1.9-0.1-3.4-0.1-3.8
		c0-0.9,0.3-1.3,1-1.3c0.6,0,1,0.3,1,1.5c0,18.8-8,25.6-22.2,25.6c-11.7,0-18.5-4.3-18.5-15.7c0-9.3,1.8-15.2,1.8-18.8
		c0-1.5-0.9-1.9-1.8-1.9c-0.9,0-1.6,0.4-1.8,2.1c-2.7,23.1-8.1,34.3-25,34.3c-16.3,0-22.1-9.8-22.1-27.8
		C150.4,282.5,163.2,263.6,186.9,263.6z M197.6,266.1c-5.8,0-11.8,27.4-11.8,54.2c0,6.4,0.7,8.7,4.1,8.7c3.1,0,4.4-4.6,5.8-13.9
		c1.8-13,5.5-38.2,5.5-42.9C201.1,268.5,200.2,266.1,197.6,266.1z"/>
	<path class="st0" d="M247.3,311.1c0-10.7,4.1-23.1,4.1-30.3c0-2.2-0.6-3-1.8-3c-2.1,0-3.3,2.7-3.3,7.7c0,1.9,0.1,3.1,0.1,3.7
		c0,0.7-0.4,1.2-1,1.2c-0.6,0-1-0.3-1-1.3c0-18.9,8.1-25.5,22.3-25.5c15.5,0,18.8,7.5,18.8,19.1c0,7.3-3.3,20.7-3.3,27.4
		c0,4.3,0.9,6.1,4,6.1c2.8,0,4.4-2.8,5.2-6.8c2.2-11,4.3-27.4,5.6-42.5c0.1-1.3,0.9-1.8,2.1-1.8c3.8,0,18.4,6.4,28.4,6.4
		c3,0,5.5-1.3,5.5-4.4c0-0.6-0.1-1.2-0.1-1.8c0-0.9,0.4-1.2,1-1.2c0.9,0,1,0.6,1,1.2c0,12.9-4.6,42.6-4.6,64.8
		c0,22.1-12.6,36.3-51.8,36.3c-27.2,0-33.9-6.1-33.9-14.5c0-10.5,9.6-17.2,25.9-17.2c11,0,19.5,3.7,19.5,11.4
		c0,12.9-16.7,11.8-16.7,16.7c0,1,0.6,1.8,2.7,1.8c11.2,0,19.8-8.1,19.8-51.5c0-1.8-0.6-2.2-1.5-2.2c-0.9,0-1.6,0.4-1.8,2.1
		c-1.6,13.5-7.7,19.7-23.8,19.7C252.6,332.6,247.3,323.7,247.3,311.1z"/>
	<path class="st0" d="M433.6,265.4c7.3,0,8.4,2.8,12.4,2.8c0.9,0,1.5-0.6,1.5-1.8c0-3.1-6.7-7.4-13.6-7.4
		c-17.9,0-30.6,14.2-30.6,39.8c0,15.7,7.3,24.7,23.1,24.7c10.5,0,18.4-4.3,18.4-10.2c0-2.2-0.9-4.3-0.9-5.8c0-0.7,0.4-1.5,1.3-1.5
		c1,0,1.3,0.9,1.3,2.2c0,25.2-11,39.8-42.8,39.8c-25.8,0-39.8-12.1-39.8-37.4c0-38.8,22.1-59.6,54.5-59.6
		c23.2,0,33.6,10.2,33.6,27.8c0,15.4-9,31.4-24.3,31.4c-9.6,0-16.6-4.4-16.6-17.8C411.1,278.4,417.5,265.4,433.6,265.4z"/>
	<path class="st0" d="M489.4,263.6c19.5,0,26.9,8.4,45.3,8.4c3,0,5.5-1.3,5.5-4.4c0-0.6-0.1-1.2-0.1-1.8c0-0.9,0.4-1.2,1-1.2
		c0.9,0,1,0.6,1,1.2c0,13.6-6.7,48.2-6.7,64.4c0,2.1,0.6,2.8,1.6,2.8c2.1,0,3.4-2.4,3.4-7.7c0-1.9-0.1-3.4-0.1-3.8
		c0-0.9,0.3-1.3,1-1.3c0.6,0,1,0.3,1,1.5c0,18.8-8,25.6-22.2,25.6c-11.7,0-18.5-4.3-18.5-15.7c0-9.3,1.8-15.2,1.8-18.8
		c0-1.5-0.9-1.9-1.8-1.9c-0.9,0-1.6,0.4-1.8,2.1c-2.7,23.1-8.1,34.3-25,34.3c-16.3,0-22.1-9.8-22.1-27.8
		C452.9,282.5,465.7,263.6,489.4,263.6z M500.1,266.1c-5.8,0-11.8,27.4-11.8,54.2c0,6.4,0.7,8.7,4.1,8.7c3.1,0,4.4-4.6,5.8-13.9
		c1.8-13,5.5-38.2,5.5-42.9C503.6,268.5,502.7,266.1,500.1,266.1z"/>
	<path class="st0" d="M589,345.7c-4.9,0-22.8-6.4-35.4-6.4c-3,0-5.5,1.3-5.5,4.4c0,0.6,0.1,1.2,0.1,1.8c0,0.9-0.4,1.2-1,1.2
		c-0.9,0-1-0.6-1-1.2c0-20.9,7.7-48,7.7-63.9c0-2.2-0.9-2.7-1.8-2.7c-2.2,0-3.3,3.3-3.3,7.7c0,1.9,0.1,3.4,0.1,3.8
		c0,0.9-0.6,1.3-1,1.3c-0.6,0-1-0.3-1-1.5c0-19.2,8.1-26.2,22.5-26.2c10.7,0,16.9,4.3,16.9,15.7c0,9.9-2.4,22.8-2.4,27.2
		c0,1.8,0.4,2.7,1.5,2.7s1.9-0.7,2.4-6.1c2.1-27.7,8.7-40.1,20.6-40.1c7,0,12,4.6,12,19.4c0,20.4-3.4,37.9-14.2,37.9
		c-8.3,0-10.8-8-12.6-13.8c-0.7-2.5-1.2-3.4-2.5-3.4c-1,0-1.8,0.7-1.8,3c0,20.4,1.8,34.5,1.8,37.3
		C591.1,345.1,590.2,345.7,589,345.7z"/>
	<path class="st0" d="M673.7,255.7c-1.6,0-2.4,1.2-2.4,3.4v1.2c0,0.7-0.4,1.2-1,1.2s-1-0.3-1-1.3c0-9.8,8.1-17.5,22.8-17.5
		c16.7,0,20.4,7.3,20.4,20.4c0,21.9-8.1,53.7-8.1,67c0,2.1,0.6,2.8,1.6,2.8c2.1,0,3.4-2.4,3.4-7.7c0-1.9-0.1-3.4-0.1-3.8
		c0-0.9,0.3-1.3,1-1.3c0.6,0,1,0.3,1,1.5c0,18.8-8,25.6-22.2,25.6c-11.7,0-18.5-4.3-18.5-15.7c0-9.3,1.8-15.2,1.8-18.8
		c0-1.5-0.9-1.9-1.8-1.9s-1.6,0.4-1.8,2.1c-2.7,23.1-8.1,34.3-25,34.3c-16.3,0-22.1-9.8-22.1-27.8c0-36.9,12.9-55.1,36.6-55.1
		c9.6,0,14.4,2.2,16.4,2.2c0.9,0,1.2-0.4,1.3-1.3c0.3-1.5,0.3-4.1,0.3-5.2C676.3,256.6,675.3,255.7,673.7,255.7z M668.9,266.8
		c-5.8,0-11.8,26.6-11.8,53.4c0,6.4,0.7,8.7,4.1,8.7c3.1,0,4.4-4.6,5.8-13.9c1.8-13,5.5-38.2,5.5-42.9
		C672.5,268.5,671.6,266.8,668.9,266.8z"/>
	<path class="st0" d="M752.7,334.6c0-7.3-5.9-12.1-13.9-15.1c-12.3-4.6-21.9-10.8-21.9-25.9c0-16,9.3-30,40.6-30
		c19.5,0,29.7,4.1,29.7,13.3c0,6.2-3.7,11.2-14.2,11.2c-9.6,0-16.7-3.1-16.7-10.2c0-4.9,2.5-11.1,2.5-11.4c0-0.9-0.4-1.5-1.8-1.5
		c-6.5,0-8.9,4.4-8.9,9.9c0,5.6,3.4,10.4,17.9,16.6c16,7,20.9,14.7,20.9,26.2c0,16.9-10.2,29.5-40.4,29.5
		c-26.8,0-34.5-6.2-34.5-14.5c0-6.8,4.3-11.4,16.1-11.4c10.1,0,16.4,4.7,16.4,11.1c0,4.4-3,7.4-3.4,11.1c0,1.5,1.2,2.2,3.6,2.2
		C749.6,345.7,752.7,340.2,752.7,334.6z"/>
</g>
</svg>
